<svg width="30" height="24" viewBox="0 0 30 24" fill="none" xmlns="http://www.w3.org/2000/svg">
<path d="M28.7182 12.9426L15.8383 23.4053C15.4774 23.7004 15.0446 23.8485 14.5399 23.8495C14.0352 23.8505 13.6014 23.7041 13.2387 23.4104L10.6039 21.3003C10.2411 21.0066 10.0591 20.6544 10.0578 20.2437C10.0565 19.8331 10.2363 19.4802 10.5973 19.185L15.8975 14.8974L1.84231 14.9252C1.3281 14.9263 0.894377 14.7838 0.541151 14.4978C0.187926 14.2118 0.0106603 13.8596 0.00935479 13.4412L7.11529e-05 10.4658C-0.00118601 10.0629 0.173892 9.71386 0.525304 9.41872C0.876716 9.12359 1.30953 8.97551 1.82374 8.97449L15.9075 8.94658L10.5519 4.65682C10.1892 4.3786 10.0072 4.03028 10.0059 3.61187C10.0046 3.19346 10.1844 2.84442 10.5454 2.56476L13.167 0.444252C13.528 0.149097 13.9608 0.00101985 14.4655 1.97462e-05C14.9701 -0.000980358 15.4039 0.14538 15.7666 0.439101L28.7116 10.8273C29.0744 11.121 29.2564 11.4732 29.2577 11.8839C29.259 12.2946 29.0791 12.6475 28.7182 12.9426Z" fill="#8DECB4"/>
</svg>
