<svg width="25" height="25" viewBox="0 0 25 25" fill="none" xmlns="http://www.w3.org/2000/svg">
<g filter="url(#filter0_d_4007_459)">
<path d="M11.0164 24.155L0.447248 13.2925C0.149083 12.9881 0 12.6236 0 12.199C0 11.7744 0.149083 11.4099 0.447248 11.1054L2.58933 8.894C2.8875 8.58953 3.24451 8.43728 3.66037 8.43723C4.07624 8.43719 4.43325 8.58937 4.73142 8.89378L9.06266 13.3637L9.06266 1.53879C9.06266 1.10617 9.20782 0.741633 9.49814 0.445178C9.78846 0.148723 10.1455 0.000473774 10.5692 0.000429914L13.5822 0.000118023C13.9902 7.57873e-05 14.3433 0.148252 14.6415 0.444646C14.9397 0.741039 15.0887 1.10555 15.0887 1.53817L15.0887 13.3871L19.4435 8.89225C19.726 8.58779 20.0791 8.43553 20.5028 8.43549C20.9265 8.43545 21.2796 8.58763 21.5621 8.89204L23.7042 11.103C24.0023 11.4074 24.1514 11.7719 24.1514 12.1965C24.1514 12.6211 24.0023 12.9856 23.7042 13.2901L13.1585 24.1548C12.8603 24.4592 12.5033 24.6115 12.0875 24.6115C11.6716 24.6116 11.3146 24.4594 11.0164 24.155Z" fill="#41B06E"/>
</g>
<defs>
<filter id="filter0_d_4007_459" x="-4" y="0" width="32.1514" height="32.6116" filterUnits="userSpaceOnUse" color-interpolation-filters="sRGB">
<feFlood flood-opacity="0" result="BackgroundImageFix"/>
<feColorMatrix in="SourceAlpha" type="matrix" values="0 0 0 0 0 0 0 0 0 0 0 0 0 0 0 0 0 0 127 0" result="hardAlpha"/>
<feOffset dy="4"/>
<feGaussianBlur stdDeviation="2"/>
<feComposite in2="hardAlpha" operator="out"/>
<feColorMatrix type="matrix" values="0 0 0 0 0 0 0 0 0 0 0 0 0 0 0 0 0 0 0.25 0"/>
<feBlend mode="normal" in2="BackgroundImageFix" result="effect1_dropShadow_4007_459"/>
<feBlend mode="normal" in="SourceGraphic" in2="effect1_dropShadow_4007_459" result="shape"/>
</filter>
</defs>
</svg>
