<svg width="31" height="25" viewBox="0 0 31 25" fill="none" xmlns="http://www.w3.org/2000/svg">
<g filter="url(#filter0_d_4007_656)">
<path d="M29.5698 13.0236L16.3354 23.5528C15.9645 23.8498 15.5198 23.9989 15.0013 23.9999C14.4827 24.0009 14.0371 23.8537 13.6644 23.5581L10.9573 21.4348C10.5846 21.1392 10.3976 20.7848 10.3963 20.3716C10.395 19.9583 10.5798 19.6032 10.9507 19.3061L16.3967 14.9912L1.95546 15.0199C1.42712 15.0209 0.981497 14.8775 0.618587 14.5898C0.255677 14.302 0.0735645 13.9476 0.0722508 13.5265L0.0629086 10.5324C0.0616435 10.1269 0.241554 9.77568 0.60264 9.47867C0.963725 9.18166 1.40844 9.03263 1.93678 9.03158L16.4074 9.00291L10.905 4.68631C10.5324 4.40635 10.3454 4.05584 10.3441 3.63479C10.3428 3.21374 10.5276 2.86249 10.8985 2.58105L13.5922 0.447055C13.9631 0.150023 14.4078 0.000993725 14.9264 -3.38551e-05C15.4449 -0.00106144 15.8906 0.146203 16.2633 0.441762L29.5632 10.895C29.9359 11.1905 30.1229 11.5449 30.1242 11.9582C30.1255 12.3714 29.9407 12.7266 29.5698 13.0236Z" fill="#8DECB4"/>
</g>
<defs>
<filter id="filter0_d_4007_656" x="-3.9371" y="0" width="38.0613" height="31.9999" filterUnits="userSpaceOnUse" color-interpolation-filters="sRGB">
<feFlood flood-opacity="0" result="BackgroundImageFix"/>
<feColorMatrix in="SourceAlpha" type="matrix" values="0 0 0 0 0 0 0 0 0 0 0 0 0 0 0 0 0 0 127 0" result="hardAlpha"/>
<feOffset dy="4"/>
<feGaussianBlur stdDeviation="2"/>
<feComposite in2="hardAlpha" operator="out"/>
<feColorMatrix type="matrix" values="0 0 0 0 0 0 0 0 0 0 0 0 0 0 0 0 0 0 0.25 0"/>
<feBlend mode="normal" in2="BackgroundImageFix" result="effect1_dropShadow_4007_656"/>
<feBlend mode="normal" in="SourceGraphic" in2="effect1_dropShadow_4007_656" result="shape"/>
</filter>
</defs>
</svg>
