<svg width="40" height="40" viewBox="0 0 40 40" fill="none" xmlns="http://www.w3.org/2000/svg">
<path d="M20 40C17.2667 40 14.6833 39.4747 12.25 38.424C9.81667 37.3733 7.69134 35.94 5.874 34.124C4.058 32.308 2.62467 30.1833 1.574 27.75C0.523336 25.3167 -0.0013308 22.7333 2.53485e-06 20C2.53485e-06 17.2333 0.525336 14.6413 1.576 12.224C2.62667 9.80667 4.06 7.69067 5.876 5.876C7.692 4.05867 9.816 2.62533 12.248 1.576C14.68 0.526667 17.264 0.00133333 20 0C22.7667 0 25.3587 0.525334 27.776 1.576C30.1933 2.62667 32.3093 4.06 34.124 5.876C35.9413 7.692 37.3747 9.80867 38.424 12.226C39.4733 14.6433 39.9987 17.2347 40 20C40 22.7333 39.4747 25.3167 38.424 27.75C37.3733 30.1833 35.94 32.3087 34.124 34.126C32.308 35.942 30.1913 37.3753 27.774 38.426C25.3567 39.4767 22.7653 40.0013 20 40ZM20 35.9C20.8667 34.7 21.6167 33.45 22.25 32.15C22.8833 30.85 23.4 29.4667 23.8 28H16.2C16.6 29.4667 17.1167 30.85 17.75 32.15C18.3833 33.45 19.1333 34.7 20 35.9ZM14.8 35.1C14.2 34 13.6747 32.858 13.224 31.674C12.7733 30.49 12.3987 29.2653 12.1 28H6.2C7.16667 29.6667 8.37534 31.1167 9.826 32.35C11.2767 33.5833 12.9347 34.5 14.8 35.1ZM25.2 35.1C27.0667 34.5 28.7253 33.5833 30.176 32.35C31.6267 31.1167 32.8347 29.6667 33.8 28H27.9C27.6 29.2667 27.2253 30.492 26.776 31.676C26.3267 32.86 25.8013 34.0013 25.2 35.1ZM4.5 24H11.3C11.2 23.3333 11.1247 22.6747 11.074 22.024C11.0233 21.3733 10.9987 20.6987 11 20C11 19.3 11.0253 18.6253 11.076 17.976C11.1267 17.3267 11.2013 16.668 11.3 16H4.5C4.33334 16.6667 4.208 17.3253 4.124 17.976C4.04 18.6267 3.99867 19.3013 4 20C4 20.7 4.042 21.3747 4.126 22.024C4.21 22.6733 4.33467 23.332 4.5 24ZM15.3 24H24.7C24.8 23.3333 24.8753 22.6747 24.926 22.024C24.9767 21.3733 25.0013 20.6987 25 20C25 19.3 24.9747 18.6253 24.924 17.976C24.8733 17.3267 24.7987 16.668 24.7 16H15.3C15.2 16.6667 15.1247 17.3253 15.074 17.976C15.0233 18.6267 14.9987 19.3013 15 20C15 20.7 15.0253 21.3747 15.076 22.024C15.1267 22.6733 15.2013 23.332 15.3 24ZM28.7 24H35.5C35.6667 23.3333 35.792 22.6747 35.876 22.024C35.96 21.3733 36.0013 20.6987 36 20C36 19.3 35.958 18.6253 35.874 17.976C35.79 17.3267 35.6653 16.668 35.5 16H28.7C28.8 16.6667 28.8753 17.3253 28.926 17.976C28.9767 18.6267 29.0013 19.3013 29 20C29 20.7 28.9747 21.3747 28.924 22.024C28.8733 22.6733 28.7987 23.332 28.7 24ZM27.9 12H33.8C32.8333 10.3333 31.6253 8.88333 30.176 7.65C28.7267 6.41667 27.068 5.5 25.2 4.9C25.8 6 26.3253 7.142 26.776 8.326C27.2267 9.51 27.6013 10.7347 27.9 12ZM16.2 12H23.8C23.4 10.5333 22.8833 9.15 22.25 7.85C21.6167 6.55 20.8667 5.3 20 4.1C19.1333 5.3 18.3833 6.55 17.75 7.85C17.1167 9.15 16.6 10.5333 16.2 12ZM6.2 12H12.1C12.4 10.7333 12.7753 9.508 13.226 8.324C13.6767 7.14 14.2013 5.99867 14.8 4.9C12.9333 5.5 11.2747 6.41667 9.824 7.65C8.37334 8.88333 7.16534 10.3333 6.2 12Z" fill="#8DECB4"/>
</svg>
