<svg width="66" height="77" viewBox="0 0 66 77" fill="none" xmlns="http://www.w3.org/2000/svg">
<path d="M35.1635 56.0206C33.5595 64.5751 32.6422 69.467 36.206 74.6472C30.8744 72.6405 27.9849 70.7085 22.9218 66.5307C26.536 65.4125 28.9982 65.9688 30.6709 59.0291C30.2584 58.5026 28.3925 60.5784 27.2269 62.1036C26.0613 63.6287 23.7192 64.7626 23.1678 64.3172C19.629 62.7029 18.6206 59.9313 16.8948 53.3722C19.4321 52.9654 21.1334 52.7914 24.2749 51.7735C28.9578 54.4217 31.577 55.8885 35.222 55.7087L35.1635 56.0206Z" fill="#8DECB4"/>
<path d="M55.5172 9.96116C57.2447 18.0947 56.5912 22.3413 51.4581 29.1456C49.3815 30.919 47.7892 33.023 46.1691 34.5566C39.2528 41.4224 36.7745 45.7606 35.468 53.7411C32.3653 53.9234 30.3259 52.6781 26.7349 50.6667L32.106 47.7964C33.2698 47.1745 34.3162 46.3378 35.0182 45.2206C36.0579 43.5662 37.351 40.9593 36.821 38.8608C32.0642 31.2029 27.2732 28.6637 18.6168 24.2265C19.5327 19.9713 20.7258 17.9585 23.7829 14.8803C25.7385 13.0859 26.8627 13.1238 28.9489 15.1262C31.8493 19.4051 32.5215 22.4096 33.7459 28.7767C34.8409 29.0481 35.1907 28.8056 35.591 28.0388C34.326 20.2119 33.0572 16.8819 29.8099 12.7896C26.9408 11.1301 25.4552 11.0825 23.0448 12.6667C19.5446 15.8083 18.0878 18.1191 16.5258 23.3657L13.3277 22.0129C12.7811 16.5181 13.336 13.815 15.4188 9.46926C19.7417 2.47199 23.6609 0.294466 33.0079 0C44.2481 0.902638 49.1993 3.24731 55.5172 9.96116Z" fill="#8DECB4"/>
<path d="M59.699 28.7767C60.6092 20.6052 59.9646 16.398 55.517 9.96118C57.371 17.8508 56.4564 22.0725 51.4579 29.1456C41.2169 38.3034 37.06 43.6153 35.4678 53.7411L35.2218 55.8317C32.9321 66.8966 32.4834 72.4381 38.1738 76C39.2112 68.8988 41.4948 63.7023 45.1849 60.8738C46.9069 60.2589 55.9059 62.9785 58.223 60.8738C59.9582 59.4169 59.9977 57.8815 59.207 54.479C61.6844 52.4553 61.808 51.4989 60.191 50.0518C61.6694 49.3613 62.2597 48.9062 62.405 47.8382C61.9219 46.5096 61.6804 45.756 61.298 44.3948C64.5098 42.565 65.6964 41.6528 65.4801 40.4596C61.5435 33.8189 59.4401 30.253 59.699 28.7767Z" fill="#FFF5E0" stroke="black"/>
<path d="M16.2799 25.3333C10.3219 22.564 5.08677 21.2751 3.48775 23.4886C1.88874 25.7022 3.01237 29.2033 9.51481 36.7702C11.7165 35.2168 12.9434 34.3602 14.6809 33.6958C14.7173 30.1706 15.0178 28.3178 16.2799 25.3333Z" fill="#FFF5E0"/>
<path d="M16.4029 51.5275C16.0131 49.512 15.9247 48.2545 15.9109 45.8705C18.3404 47.6825 19.6575 48.6229 21.9379 50.1747C19.8277 50.8444 18.6199 51.1517 16.4029 51.5275Z" fill="#FFF5E0"/>
<path d="M16.2799 25.3333C10.3219 22.564 5.08677 21.2751 3.48775 23.4886C1.88874 25.7022 3.01237 29.2033 9.51481 36.7702C11.7165 35.2168 12.9434 34.3602 14.6809 33.6958C14.7173 30.1706 15.0178 28.3178 16.2799 25.3333Z" stroke="black"/>
<path d="M16.4029 51.5275C16.0131 49.512 15.9247 48.2545 15.9109 45.8705C18.3404 47.6825 19.6575 48.6229 21.9379 50.1747C19.8277 50.8444 18.6199 51.1517 16.4029 51.5275Z" stroke="black"/>
<path d="M24.2267 31.1524C-0.461903 38.4824 -10.8468 60.9305 23.7696 50.7863C43.8862 44.8912 36.767 34.163 16.8789 24.0842C5.91705 19.6775 -9.9847 17.304 14.1031 43.0636C18.9363 48.8229 30.0397 53.9277 35.3301 55.0403M30.6275 58.8362C27.5578 66.4279 12.8981 73.4719 15.0828 39.0714C17.826 -4.12311 36.5058 16.3616 34.677 29.7126" stroke="black" stroke-width="3" stroke-linecap="round"/>
<path d="M22.7987 30.2524C20.8142 30.8185 19.5604 31.3729 16.7717 32.589C16.9271 29.8257 17.2154 28.3281 18.1247 26.1942C29.5138 32.3571 34.4937 35.7231 35.0988 41.1974C35.5908 42.9191 31.8519 46.6469 24.2747 49.4369C20.9528 47.1383 19.1117 45.7919 15.9106 43.1651C15.9308 39.3855 16.0588 37.6479 16.4026 34.9256C19.4285 33.2575 23.819 31.7536 24.0287 31.8512C24.2385 31.9487 23.8009 30.2499 22.7987 30.2524Z" fill="#FFF5E0" stroke="black"/>
<path d="M14.1887 36.0323C12.3216 36.8402 11.488 37.2668 10.8677 38.3689C11.7894 39.5521 12.2878 40.4714 13.8197 41.3204L14.1887 36.0323Z" fill="#FFF5E0" stroke="black"/>
<path d="M16.2799 25.3333C10.3219 22.5641 5.08682 21.2751 3.4878 23.4887C1.88879 25.7023 3.01242 29.2033 9.51486 36.7702C11.7165 35.2168 12.9435 34.3602 14.6809 33.6958C14.7173 30.1706 15.0179 28.3178 16.2799 25.3333Z" fill="#FFF5E0"/>
<path d="M16.4029 51.5275C16.0132 49.512 15.9247 48.2545 15.9109 45.8706C18.3404 47.6825 19.6576 48.6229 21.938 50.1748C19.8278 50.8445 18.62 51.1517 16.4029 51.5275Z" fill="#FFF5E0"/>
<path d="M22.799 30.2524C20.8144 30.8185 19.5607 31.3729 16.7719 32.589C16.9274 29.8257 17.2157 28.3281 18.1249 26.1942C29.5141 32.3572 34.494 35.7231 35.0991 41.1974C35.5911 42.9191 31.8522 46.6469 24.275 49.4369C20.953 47.1383 19.112 45.7919 15.9109 43.1651C15.931 39.3855 16.0591 37.6479 16.4029 34.9256C19.4288 33.2575 23.8192 31.7536 24.029 31.8512C24.2388 31.9487 23.8012 30.2499 22.799 30.2524Z" fill="#FFF5E0"/>
<path d="M14.1889 36.0324C12.3218 36.8403 11.4882 37.2668 10.8679 38.369C11.7896 39.5521 12.288 40.4715 13.8199 41.3204L14.1889 36.0324Z" fill="#FFF5E0"/>
<path d="M14.4349 52.0194C13.982 49.5557 13.8252 47.9297 13.9429 44.0259C12.9797 43.3943 11.6484 41.9885 9.27647 39.4838L9.26886 39.4757C5.98759 42.0622 4.33981 43.6007 2.50379 46.8544C1.03325 49.873 1.86789 51.0216 5.82482 52.2654C8.92503 52.741 10.8114 52.6903 14.4349 52.0194Z" fill="#FFF5E0"/>
<path d="M25.2591 35.6635C30.7645 36.0078 30.7241 44.2211 24.8902 44.0259C19.0562 43.8308 19.7537 35.3191 25.2591 35.6635Z" fill="#8DECB4"/>
</svg>
