<svg width="512" height="512" viewBox="0 0 512 512" fill="none" xmlns="http://www.w3.org/2000/svg">
<path d="M255.313 25.625C256.691 25.6258 256.691 25.6258 258.096 25.6266C273.702 25.6689 288.701 26.6951 304 30C304.994 30.2143 305.989 30.4286 307.013 30.6494C321.152 33.8128 334.654 38.3898 348 44C348.734 44.3063 349.468 44.6126 350.224 44.9282C372.778 54.5077 393.613 68.7491 411.395 85.5469C413.607 87.6302 415.863 89.6075 418.188 91.5625C432.629 104.166 444.132 120.698 454 137C454.425 137.699 454.851 138.399 455.289 139.119C476.47 174.397 486.467 214.367 486.375 255.312C486.374 256.69 486.374 256.69 486.373 258.096C486.331 273.702 485.305 288.7 482 304C481.679 305.491 481.679 305.491 481.351 307.013C478.187 321.152 473.61 334.654 468 348C467.694 348.734 467.387 349.468 467.072 350.224C457.492 372.778 443.251 393.613 426.453 411.395C424.37 413.607 422.393 415.862 420.438 418.187C407.834 432.629 391.302 444.132 375 454C374.301 454.425 373.601 454.85 372.881 455.289C341.67 474.028 304.454 485.886 267.883 486.238C267.036 486.248 266.19 486.258 265.318 486.268C245.871 486.446 227.095 486.125 208 482C206.509 481.679 206.509 481.679 204.987 481.351C190.848 478.187 177.346 473.61 164 468C163.266 467.694 162.533 467.387 161.777 467.072C139.222 457.492 118.387 443.251 100.606 426.453C98.3928 424.37 96.1377 422.392 93.8126 420.437C79.3708 407.834 67.8683 391.302 58.0001 375C57.5749 374.301 57.1497 373.601 56.7116 372.881C35.5301 337.603 25.5334 297.633 25.6251 256.687C25.6257 255.769 25.6262 254.85 25.6268 253.904C25.6691 238.298 26.6952 223.3 30.0001 208C30.2144 207.006 30.4287 206.011 30.6496 204.987C33.813 190.848 38.39 177.346 44.0001 164C44.3065 163.266 44.6128 162.532 44.9284 161.776C54.3453 139.605 68.3072 118.915 84.7775 101.375C86.719 99.3003 88.5526 97.1783 90.3751 95C104.75 78.5957 123.39 66.0674 142 55C142.625 54.6253 143.251 54.2507 143.895 53.8647C177.376 34.0893 216.768 25.5387 255.313 25.625Z" fill="#8DECB4"/>
<path d="M255.313 25.625C256.691 25.6258 256.691 25.6258 258.096 25.6266C273.702 25.6689 288.701 26.6951 304 30C304.994 30.2143 305.989 30.4286 307.013 30.6494C321.152 33.8128 334.654 38.3898 348 44C348.734 44.3063 349.468 44.6126 350.224 44.9282C372.778 54.5077 393.613 68.7491 411.395 85.5469C413.607 87.6302 415.863 89.6075 418.188 91.5625C432.629 104.166 444.132 120.698 454 137C454.425 137.699 454.851 138.399 455.289 139.119C476.47 174.397 486.467 214.367 486.375 255.312C486.374 256.69 486.374 256.69 486.373 258.096C486.331 273.702 485.305 288.7 482 304C481.679 305.491 481.679 305.491 481.351 307.013C478.187 321.152 473.61 334.654 468 348C467.694 348.734 467.387 349.468 467.072 350.224C457.492 372.778 443.251 393.613 426.453 411.395C424.37 413.607 422.393 415.862 420.438 418.187C407.834 432.629 391.302 444.132 375 454C374.301 454.425 373.601 454.85 372.881 455.289C341.67 474.028 304.454 485.886 267.883 486.238C267.036 486.248 266.19 486.258 265.318 486.268C245.871 486.446 227.095 486.125 208 482C206.509 481.679 206.509 481.679 204.987 481.351C190.848 478.187 177.346 473.61 164 468C163.266 467.694 162.533 467.387 161.777 467.072C139.222 457.492 118.387 443.251 100.606 426.453C98.3928 424.37 96.1377 422.392 93.8126 420.437C79.3708 407.834 67.8683 391.302 58.0001 375C57.5749 374.301 57.1497 373.601 56.7116 372.881C35.5301 337.603 25.5334 297.633 25.6251 256.687C25.6257 255.769 25.6262 254.85 25.6268 253.904C25.6691 238.298 26.6952 223.3 30.0001 208C30.2144 207.006 30.4287 206.011 30.6496 204.987C33.813 190.848 38.39 177.346 44.0001 164C44.3065 163.266 44.6128 162.532 44.9284 161.776C54.3453 139.605 68.3072 118.915 84.7775 101.375C86.719 99.3003 88.5526 97.1783 90.3751 95C104.75 78.5957 123.39 66.0674 142 55C142.625 54.6253 143.251 54.2507 143.895 53.8647C177.376 34.0893 216.768 25.5387 255.313 25.625ZM139 138C138.192 138.758 137.384 139.516 136.551 140.297C107.54 168.042 91.198 209.42 89.7267 249.117C89.2116 273.341 92.5828 296.585 102 319C102.33 319.792 102.66 320.583 103 321.399C120.629 362.864 153.94 393.425 195 411C196.388 411.596 196.388 411.596 197.805 412.203C203.641 414.494 209.688 416.057 215.75 417.625C216.536 417.831 217.321 418.038 218.13 418.251C258.943 428.397 304.358 421.094 340.384 399.576C379.368 375.296 406.158 339.398 418 295C428.119 251.237 420.699 206.176 397.275 167.985C390.289 157.103 381.997 147.26 373 138C372.471 137.448 371.942 136.896 371.397 136.328C342.917 107.112 300.627 90.2747 260.151 89.6291C214.006 89.5767 172.062 105.617 139 138Z" fill="#8DECB4"/>
<path d="M363 129C363.862 129.753 364.725 130.506 365.613 131.281C368.106 133.49 370.559 135.735 373 138C373.963 138.864 373.963 138.864 374.945 139.746C404.07 167.104 420.925 209.271 422.238 248.75C423.043 293.627 408.701 335.874 378 369C377.472 369.572 376.944 370.144 376.4 370.733C347.889 401.242 306.202 420.879 264.367 422.34C219.669 423.373 176.421 409.449 143.549 378.389C142.507 377.391 141.469 376.39 140.433 375.386C139.147 374.142 137.844 372.918 136.539 371.695C107.143 343.537 90.4569 300.702 89.5826 260.466C89.3221 213.738 105.841 172.727 138 139C138.739 138.209 139.477 137.417 140.238 136.602C155.434 120.767 174.979 109.591 195 101C195.914 100.603 196.828 100.206 197.77 99.7969C252.26 78.1722 319.218 90.4446 363 129ZM224 105C222.463 105.358 220.925 105.713 219.387 106.066C208.691 108.605 198.856 112.15 189 117C188.049 117.462 188.049 117.462 187.079 117.934C172.297 125.2 159.82 134.592 148 146C146.722 147.183 146.722 147.183 145.418 148.391C126.711 166.184 113.237 191.081 107 216C106.46 217.855 105.918 219.709 105.375 221.562C95.4386 258.877 103.568 299.714 122 333C125.046 338.21 128.402 343.158 132 348C133.04 349.404 133.04 349.404 134.102 350.836C158.509 382.008 195.219 404.012 234.688 409.188C274.385 413.735 315.791 404.622 347.875 380.062C378.321 355.545 400.372 323.848 407.626 284.978C407.948 283.277 408.312 281.585 408.684 279.895C414.595 249.684 408.548 216.304 395 189C394.54 188.056 394.54 188.056 394.071 187.092C386.803 172.304 377.412 159.824 366 148C365.211 147.148 364.422 146.296 363.609 145.418C338.266 118.774 299.148 102.842 262.699 101.719C249.466 101.482 236.854 101.627 224 105Z" fill="#FFF5E0"/>
<path d="M230 202C233.863 203.545 237.124 205.112 240.699 207.168C241.812 207.806 242.926 208.444 244.073 209.102C245.278 209.797 246.483 210.492 247.688 211.188C248.944 211.91 250.201 212.632 251.458 213.353C254.686 215.207 257.912 217.066 261.137 218.925C263.995 220.574 266.855 222.22 269.715 223.867C273.978 226.324 278.24 228.784 282.5 231.246C286.44 233.523 290.382 235.796 294.327 238.064C296.11 239.089 297.893 240.115 299.675 241.14C301.908 242.425 304.141 243.708 306.375 244.99C311.989 248.222 317.533 251.526 323 255C321.722 258.834 320.525 259.106 317.031 261.004C315.994 261.574 314.957 262.145 313.889 262.732C312.771 263.336 311.652 263.94 310.5 264.562C308.185 265.835 305.872 267.108 303.559 268.383C302.427 269.004 301.295 269.626 300.128 270.267C296.233 272.425 292.388 274.659 288.562 276.938C280.412 281.779 272.198 286.505 263.979 291.229C258.469 294.401 252.974 297.597 247.512 300.852C246.497 301.456 245.483 302.06 244.438 302.682C242.515 303.831 240.595 304.983 238.677 306.14C237.825 306.649 236.972 307.159 236.094 307.684C235.348 308.133 234.602 308.582 233.834 309.045C232 310 232 310 230 310C230 274.36 230 238.72 230 202Z" fill="#8DECB4"/>
<path d="M223.949 184.898C229.787 186.043 234.786 189.607 239.813 192.625C240.965 193.305 242.118 193.984 243.272 194.662C245.665 196.07 248.056 197.483 250.444 198.899C255.934 202.15 261.469 205.321 267 208.5C269.167 209.75 271.334 211 273.5 212.25C275.109 213.178 275.109 213.178 276.75 214.125C280 216 283.25 217.875 286.5 219.75C287.574 220.369 288.648 220.989 289.754 221.627C291.907 222.869 294.06 224.112 296.213 225.355C301.241 228.258 306.272 231.158 311.31 234.043C313.085 235.059 314.858 236.076 316.631 237.094C318.848 238.366 321.067 239.636 323.287 240.902C338.829 249.828 338.829 249.828 342 253C342.375 255.812 342.375 255.812 342 259C338.848 261.876 335.435 264.036 331.738 266.145C330.716 266.731 329.693 267.318 328.639 267.922C327.541 268.546 326.444 269.17 325.313 269.812C324.15 270.477 322.988 271.143 321.826 271.809C319.415 273.19 317.002 274.57 314.589 275.948C309.049 279.113 303.525 282.308 298 285.5C295.834 286.75 293.667 288 291.5 289.25C290.428 289.869 289.355 290.488 288.25 291.125C285 293 281.75 294.875 278.5 296.75C277.426 297.37 276.352 297.989 275.246 298.628C273.094 299.869 270.943 301.11 268.792 302.351C263.741 305.265 258.689 308.179 253.638 311.094C251.85 312.127 250.061 313.159 248.272 314.191C246.027 315.487 243.782 316.782 241.537 318.078C239.554 319.222 237.57 320.366 235.586 321.507C233.989 322.429 232.396 323.357 230.809 324.296C224.915 327.761 224.915 327.761 221 327C219.383 325.817 219.383 325.817 218 324C217.623 321.515 217.623 321.515 217.619 318.496C217.611 317.352 217.602 316.208 217.594 315.029C217.603 313.145 217.603 313.145 217.612 311.223C217.608 309.887 217.603 308.552 217.596 307.216C217.582 303.588 217.588 299.96 217.597 296.332C217.605 292.538 217.598 288.744 217.593 284.949C217.588 278.577 217.595 272.205 217.609 265.833C217.625 258.463 217.62 251.093 217.604 243.722C217.59 237.398 217.588 231.073 217.596 224.749C217.601 220.97 217.601 217.191 217.591 213.412C217.583 209.86 217.589 206.307 217.606 202.755C217.612 200.827 217.603 198.899 217.594 196.971C217.602 195.827 217.611 194.682 217.619 193.504C217.62 192.507 217.622 191.511 217.623 190.485C218 188 218 188 219.34 186.162C221 185 221 185 223.949 184.898ZM230 202C230 237.64 230 273.28 230 310C233.864 308.455 237.124 306.888 240.699 304.832C242.369 303.875 242.369 303.875 244.073 302.898C245.278 302.203 246.483 301.508 247.688 300.812C248.945 300.09 250.202 299.368 251.459 298.647C254.687 296.793 257.912 294.934 261.137 293.075C263.995 291.426 266.855 289.78 269.715 288.133C273.978 285.676 278.24 283.216 282.5 280.754C286.44 278.477 290.382 276.204 294.327 273.936C296.11 272.911 297.893 271.885 299.676 270.86C301.908 269.575 304.142 268.292 306.376 267.01C311.989 263.778 317.533 260.474 323 257C321.722 253.166 320.526 252.894 317.031 250.996C315.476 250.141 315.476 250.141 313.889 249.268C312.771 248.664 311.652 248.06 310.5 247.438C308.186 246.165 305.872 244.892 303.559 243.617C302.427 242.996 301.295 242.374 300.129 241.733C296.233 239.575 292.389 237.341 288.563 235.062C280.412 230.221 272.198 225.495 263.979 220.771C258.469 217.599 252.975 214.403 247.512 211.148C246.498 210.544 245.483 209.94 244.438 209.318C242.516 208.169 240.595 207.017 238.677 205.86C237.825 205.351 236.972 204.841 236.094 204.316C235.348 203.867 234.603 203.418 233.834 202.955C232.049 201.846 232.049 201.846 230 202Z" fill="#FFF5E0"/>
</svg>
